<?xml version="1.0" encoding="utf-8"?>
<!-- Generator: Adobe Illustrator 16.0.0, SVG Export Plug-In . SVG Version: 6.00 Build 0)  -->
<!DOCTYPE svg PUBLIC "-//W3C//DTD SVG 1.1//EN" "http://www.w3.org/Graphics/SVG/1.1/DTD/svg11.dtd">
<svg version="1.1" xmlns="http://www.w3.org/2000/svg" xmlns:xlink="http://www.w3.org/1999/xlink" x="0px" y="0px" width="990px" height="140px" viewBox="0 0 990 140" enable-background="new 0 0 990 140" xml:space="preserve" id="1">
	<g>
		<rect x="10" y="10" fill="none" stroke="#222222" stroke-width="2" stroke-miterlimit="10" width="970" height="120"/>
		<rect x="13" y="13" fill="none" stroke="#222222" stroke-miterlimit="10" width="964" height="114"/>
		<rect x="23" y="70" fill="#222222" width="182" height="47"/>
		<rect x="211" y="70" fill="#222222" width="182" height="47"/>
		<text transform="matrix(1 0 0 1 26 37.3516)" font-family="'Arial'" font-size="15">Openflow Switch</text>
		<g>
			<rect x="413" y="23" fill="#222222" width="272" height="94"/>
			<g>
				<g>
					<rect x="504" y="24" fill="#333333" width="45" height="45"/>
					<path fill="#EEEEEE" d="M544,30.444h-35c-0.553,0-1,0.448-1,1v23c0,0.552,0.447,1,1,1h3v3c0,0.552,0.447,1,1,1h4v3
						c0,0.552,0.447,1,1,1h17c0.553,0,1-0.448,1-1v-3h4c0.553,0,1-0.448,1-1v-3h3c0.553,0,1-0.448,1-1v-23
						C545,30.892,544.553,30.444,544,30.444z M516.5,39.944c0,0.276-0.224,0.5-0.5,0.5h-3c-0.276,0-0.5-0.224-0.5-0.5v-5
						c0-0.276,0.224-0.5,0.5-0.5h3c0.276,0,0.5,0.224,0.5,0.5V39.944z M524.5,39.944c0,0.276-0.224,0.5-0.5,0.5h-3
						c-0.276,0-0.5-0.224-0.5-0.5v-5c0-0.276,0.224-0.5,0.5-0.5h3c0.276,0,0.5,0.224,0.5,0.5V39.944z M532.5,39.944
						c0,0.276-0.224,0.5-0.5,0.5h-3c-0.276,0-0.5-0.224-0.5-0.5v-5c0-0.276,0.224-0.5,0.5-0.5h3c0.276,0,0.5,0.224,0.5,0.5V39.944z
						 M540.5,39.944c0,0.276-0.224,0.5-0.5,0.5h-3c-0.276,0-0.5-0.224-0.5-0.5v-5c0-0.276,0.224-0.5,0.5-0.5h3
						c0.276,0,0.5,0.224,0.5,0.5V39.944z"/>
				</g>
				<g>
					<rect x="549" y="24" fill="#222222" width="45" height="45"/>
					<path fill="#EEEEEE" d="M589,30.444h-35c-0.553,0-1,0.448-1,1v23c0,0.552,0.447,1,1,1h3v3c0,0.552,0.447,1,1,1h4v3
						c0,0.552,0.447,1,1,1h17c0.553,0,1-0.448,1-1v-3h4c0.553,0,1-0.448,1-1v-3h3c0.553,0,1-0.448,1-1v-23
						C590,30.892,589.553,30.444,589,30.444z M561.5,39.944c0,0.276-0.224,0.5-0.5,0.5h-3c-0.276,0-0.5-0.224-0.5-0.5v-5
						c0-0.276,0.224-0.5,0.5-0.5h3c0.276,0,0.5,0.224,0.5,0.5V39.944z M569.5,39.944c0,0.276-0.224,0.5-0.5,0.5h-3
						c-0.276,0-0.5-0.224-0.5-0.5v-5c0-0.276,0.224-0.5,0.5-0.5h3c0.276,0,0.5,0.224,0.5,0.5V39.944z M577.5,39.944
						c0,0.276-0.224,0.5-0.5,0.5h-3c-0.276,0-0.5-0.224-0.5-0.5v-5c0-0.276,0.224-0.5,0.5-0.5h3c0.276,0,0.5,0.224,0.5,0.5V39.944z
						 M585.5,39.944c0,0.276-0.224,0.5-0.5,0.5h-3c-0.276,0-0.5-0.224-0.5-0.5v-5c0-0.276,0.224-0.5,0.5-0.5h3
						c0.276,0,0.5,0.224,0.5,0.5V39.944z"/>
				</g>
				<g>
					<rect x="594" y="24" fill="#333333" width="45" height="45"/>
					<path fill="#EEEEEE" d="M634,30.444h-35c-0.553,0-1,0.448-1,1v23c0,0.552,0.447,1,1,1h3v3c0,0.552,0.447,1,1,1h4v3
						c0,0.552,0.447,1,1,1h17c0.553,0,1-0.448,1-1v-3h4c0.553,0,1-0.448,1-1v-3h3c0.553,0,1-0.448,1-1v-23
						C635,30.892,634.553,30.444,634,30.444z M606.5,39.944c0,0.276-0.224,0.5-0.5,0.5h-3c-0.276,0-0.5-0.224-0.5-0.5v-5
						c0-0.276,0.224-0.5,0.5-0.5h3c0.276,0,0.5,0.224,0.5,0.5V39.944z M614.5,39.944c0,0.276-0.224,0.5-0.5,0.5h-3
						c-0.276,0-0.5-0.224-0.5-0.5v-5c0-0.276,0.224-0.5,0.5-0.5h3c0.276,0,0.5,0.224,0.5,0.5V39.944z M622.5,39.944
						c0,0.276-0.224,0.5-0.5,0.5h-3c-0.276,0-0.5-0.224-0.5-0.5v-5c0-0.276,0.224-0.5,0.5-0.5h3c0.276,0,0.5,0.224,0.5,0.5V39.944z
						 M630.5,39.944c0,0.276-0.224,0.5-0.5,0.5h-3c-0.276,0-0.5-0.224-0.5-0.5v-5c0-0.276,0.224-0.5,0.5-0.5h3
						c0.276,0,0.5,0.224,0.5,0.5V39.944z"/>
				</g>
				<g>
					<rect x="639" y="24" fill="#222222" width="45" height="45"/>
					<path fill="#EEEEEE" d="M679,30.444h-35c-0.553,0-1,0.448-1,1v23c0,0.552,0.447,1,1,1h3v3c0,0.552,0.447,1,1,1h4v3
						c0,0.552,0.447,1,1,1h17c0.553,0,1-0.448,1-1v-3h4c0.553,0,1-0.448,1-1v-3h3c0.553,0,1-0.448,1-1v-23
						C680,30.892,679.553,30.444,679,30.444z M651.5,39.944c0,0.276-0.224,0.5-0.5,0.5h-3c-0.276,0-0.5-0.224-0.5-0.5v-5
						c0-0.276,0.224-0.5,0.5-0.5h3c0.276,0,0.5,0.224,0.5,0.5V39.944z M659.5,39.944c0,0.276-0.224,0.5-0.5,0.5h-3
						c-0.276,0-0.5-0.224-0.5-0.5v-5c0-0.276,0.224-0.5,0.5-0.5h3c0.276,0,0.5,0.224,0.5,0.5V39.944z M667.5,39.944
						c0,0.276-0.224,0.5-0.5,0.5h-3c-0.276,0-0.5-0.224-0.5-0.5v-5c0-0.276,0.224-0.5,0.5-0.5h3c0.276,0,0.5,0.224,0.5,0.5V39.944z
						 M675.5,39.944c0,0.276-0.224,0.5-0.5,0.5h-3c-0.276,0-0.5-0.224-0.5-0.5v-5c0-0.276,0.224-0.5,0.5-0.5h3
						c0.276,0,0.5,0.224,0.5,0.5V39.944z"/>
				</g>
				<g>
					<rect x="504" y="71" fill="#222222" width="45" height="45"/>
					<path fill="#EEEEEE" d="M544,77.443h-35c-0.553,0-1,0.449-1,1v23c0,0.553,0.447,1,1,1h3v3c0,0.553,0.447,1,1,1h4v3
						c0,0.553,0.447,1,1,1h17c0.553,0,1-0.447,1-1v-3h4c0.553,0,1-0.447,1-1v-3h3c0.553,0,1-0.447,1-1v-23
						C545,77.893,544.553,77.443,544,77.443z M516.5,86.943c0,0.277-0.224,0.5-0.5,0.5h-3c-0.276,0-0.5-0.223-0.5-0.5v-5
						c0-0.275,0.224-0.5,0.5-0.5h3c0.276,0,0.5,0.225,0.5,0.5V86.943z M524.5,86.943c0,0.277-0.224,0.5-0.5,0.5h-3
						c-0.276,0-0.5-0.223-0.5-0.5v-5c0-0.275,0.224-0.5,0.5-0.5h3c0.276,0,0.5,0.225,0.5,0.5V86.943z M532.5,86.943
						c0,0.277-0.224,0.5-0.5,0.5h-3c-0.276,0-0.5-0.223-0.5-0.5v-5c0-0.275,0.224-0.5,0.5-0.5h3c0.276,0,0.5,0.225,0.5,0.5V86.943z
						 M540.5,86.943c0,0.277-0.224,0.5-0.5,0.5h-3c-0.276,0-0.5-0.223-0.5-0.5v-5c0-0.275,0.224-0.5,0.5-0.5h3
						c0.276,0,0.5,0.225,0.5,0.5V86.943z"/>
				</g>
				<g>
					<rect x="549" y="71" fill="#333333" width="45" height="45"/>
					<path fill="#EEEEEE" d="M589,77.443h-35c-0.553,0-1,0.449-1,1v23c0,0.553,0.447,1,1,1h3v3c0,0.553,0.447,1,1,1h4v3
						c0,0.553,0.447,1,1,1h17c0.553,0,1-0.447,1-1v-3h4c0.553,0,1-0.447,1-1v-3h3c0.553,0,1-0.447,1-1v-23
						C590,77.893,589.553,77.443,589,77.443z M561.5,86.943c0,0.277-0.224,0.5-0.5,0.5h-3c-0.276,0-0.5-0.223-0.5-0.5v-5
						c0-0.275,0.224-0.5,0.5-0.5h3c0.276,0,0.5,0.225,0.5,0.5V86.943z M569.5,86.943c0,0.277-0.224,0.5-0.5,0.5h-3
						c-0.276,0-0.5-0.223-0.5-0.5v-5c0-0.275,0.224-0.5,0.5-0.5h3c0.276,0,0.5,0.225,0.5,0.5V86.943z M577.5,86.943
						c0,0.277-0.224,0.5-0.5,0.5h-3c-0.276,0-0.5-0.223-0.5-0.5v-5c0-0.275,0.224-0.5,0.5-0.5h3c0.276,0,0.5,0.225,0.5,0.5V86.943z
						 M585.5,86.943c0,0.277-0.224,0.5-0.5,0.5h-3c-0.276,0-0.5-0.223-0.5-0.5v-5c0-0.275,0.224-0.5,0.5-0.5h3
						c0.276,0,0.5,0.225,0.5,0.5V86.943z"/>
				</g>
				<g>
					<rect x="414" y="24" fill="#333333" width="45" height="45"/>
					<path fill="#EEEEEE" d="M454,30.444h-35c-0.553,0-1,0.448-1,1v23c0,0.552,0.447,1,1,1h3v3c0,0.552,0.447,1,1,1h4v3
						c0,0.552,0.447,1,1,1h17c0.553,0,1-0.448,1-1v-3h4c0.553,0,1-0.448,1-1v-3h3c0.553,0,1-0.448,1-1v-23
						C455,30.892,454.553,30.444,454,30.444z M426.5,39.944c0,0.276-0.224,0.5-0.5,0.5h-3c-0.276,0-0.5-0.224-0.5-0.5v-5
						c0-0.276,0.224-0.5,0.5-0.5h3c0.276,0,0.5,0.224,0.5,0.5V39.944z M434.5,39.944c0,0.276-0.224,0.5-0.5,0.5h-3
						c-0.276,0-0.5-0.224-0.5-0.5v-5c0-0.276,0.224-0.5,0.5-0.5h3c0.276,0,0.5,0.224,0.5,0.5V39.944z M442.5,39.944
						c0,0.276-0.224,0.5-0.5,0.5h-3c-0.276,0-0.5-0.224-0.5-0.5v-5c0-0.276,0.224-0.5,0.5-0.5h3c0.276,0,0.5,0.224,0.5,0.5V39.944z
						 M450.5,39.944c0,0.276-0.224,0.5-0.5,0.5h-3c-0.276,0-0.5-0.224-0.5-0.5v-5c0-0.276,0.224-0.5,0.5-0.5h3
						c0.276,0,0.5,0.224,0.5,0.5V39.944z"/>
				</g>
				<g>
					<rect x="459" y="24" fill="#222222" width="45" height="45"/>
					<path fill="#EEEEEE" d="M499,30.444h-35c-0.553,0-1,0.448-1,1v23c0,0.552,0.447,1,1,1h3v3c0,0.552,0.447,1,1,1h4v3
						c0,0.552,0.447,1,1,1h17c0.553,0,1-0.448,1-1v-3h4c0.553,0,1-0.448,1-1v-3h3c0.553,0,1-0.448,1-1v-23
						C500,30.892,499.553,30.444,499,30.444z M471.5,39.944c0,0.276-0.224,0.5-0.5,0.5h-3c-0.276,0-0.5-0.224-0.5-0.5v-5
						c0-0.276,0.224-0.5,0.5-0.5h3c0.276,0,0.5,0.224,0.5,0.5V39.944z M479.5,39.944c0,0.276-0.224,0.5-0.5,0.5h-3
						c-0.276,0-0.5-0.224-0.5-0.5v-5c0-0.276,0.224-0.5,0.5-0.5h3c0.276,0,0.5,0.224,0.5,0.5V39.944z M487.5,39.944
						c0,0.276-0.224,0.5-0.5,0.5h-3c-0.276,0-0.5-0.224-0.5-0.5v-5c0-0.276,0.224-0.5,0.5-0.5h3c0.276,0,0.5,0.224,0.5,0.5V39.944z
						 M495.5,39.944c0,0.276-0.224,0.5-0.5,0.5h-3c-0.276,0-0.5-0.224-0.5-0.5v-5c0-0.276,0.224-0.5,0.5-0.5h3
						c0.276,0,0.5,0.224,0.5,0.5V39.944z"/>
				</g>
				<g>
					<rect x="414" y="71" fill="#222222" width="45" height="45"/>
					<path fill="#EEEEEE" d="M454,77.443h-35c-0.553,0-1,0.449-1,1v23c0,0.553,0.447,1,1,1h3v3c0,0.553,0.447,1,1,1h4v3
						c0,0.553,0.447,1,1,1h17c0.553,0,1-0.447,1-1v-3h4c0.553,0,1-0.447,1-1v-3h3c0.553,0,1-0.447,1-1v-23
						C455,77.893,454.553,77.443,454,77.443z M426.5,86.943c0,0.277-0.224,0.5-0.5,0.5h-3c-0.276,0-0.5-0.223-0.5-0.5v-5
						c0-0.275,0.224-0.5,0.5-0.5h3c0.276,0,0.5,0.225,0.5,0.5V86.943z M434.5,86.943c0,0.277-0.224,0.5-0.5,0.5h-3
						c-0.276,0-0.5-0.223-0.5-0.5v-5c0-0.275,0.224-0.5,0.5-0.5h3c0.276,0,0.5,0.225,0.5,0.5V86.943z M442.5,86.943
						c0,0.277-0.224,0.5-0.5,0.5h-3c-0.276,0-0.5-0.223-0.5-0.5v-5c0-0.275,0.224-0.5,0.5-0.5h3c0.276,0,0.5,0.225,0.5,0.5V86.943z
						 M450.5,86.943c0,0.277-0.224,0.5-0.5,0.5h-3c-0.276,0-0.5-0.223-0.5-0.5v-5c0-0.275,0.224-0.5,0.5-0.5h3
						c0.276,0,0.5,0.225,0.5,0.5V86.943z"/>
				</g>
				<g>
					<rect x="459" y="71" fill="#333333" width="45" height="45"/>
					<path fill="#EEEEEE" d="M499,77.443h-35c-0.553,0-1,0.449-1,1v23c0,0.553,0.447,1,1,1h3v3c0,0.553,0.447,1,1,1h4v3
						c0,0.553,0.447,1,1,1h17c0.553,0,1-0.447,1-1v-3h4c0.553,0,1-0.447,1-1v-3h3c0.553,0,1-0.447,1-1v-23
						C500,77.893,499.553,77.443,499,77.443z M471.5,86.943c0,0.277-0.224,0.5-0.5,0.5h-3c-0.276,0-0.5-0.223-0.5-0.5v-5
						c0-0.275,0.224-0.5,0.5-0.5h3c0.276,0,0.5,0.225,0.5,0.5V86.943z M479.5,86.943c0,0.277-0.224,0.5-0.5,0.5h-3
						c-0.276,0-0.5-0.223-0.5-0.5v-5c0-0.275,0.224-0.5,0.5-0.5h3c0.276,0,0.5,0.225,0.5,0.5V86.943z M487.5,86.943
						c0,0.277-0.224,0.5-0.5,0.5h-3c-0.276,0-0.5-0.223-0.5-0.5v-5c0-0.275,0.224-0.5,0.5-0.5h3c0.276,0,0.5,0.225,0.5,0.5V86.943z
						 M495.5,86.943c0,0.277-0.224,0.5-0.5,0.5h-3c-0.276,0-0.5-0.223-0.5-0.5v-5c0-0.275,0.224-0.5,0.5-0.5h3
						c0.276,0,0.5,0.225,0.5,0.5V86.943z"/>
				</g>
				<g>
					<rect x="594" y="71" fill="#222222" width="45" height="45"/>
					<path fill="#EEEEEE" d="M634,77.443h-35c-0.553,0-1,0.449-1,1v23c0,0.553,0.447,1,1,1h3v3c0,0.553,0.447,1,1,1h4v3
						c0,0.553,0.447,1,1,1h17c0.553,0,1-0.447,1-1v-3h4c0.553,0,1-0.447,1-1v-3h3c0.553,0,1-0.447,1-1v-23
						C635,77.893,634.553,77.443,634,77.443z M606.5,86.943c0,0.277-0.224,0.5-0.5,0.5h-3c-0.276,0-0.5-0.223-0.5-0.5v-5
						c0-0.275,0.224-0.5,0.5-0.5h3c0.276,0,0.5,0.225,0.5,0.5V86.943z M614.5,86.943c0,0.277-0.224,0.5-0.5,0.5h-3
						c-0.276,0-0.5-0.223-0.5-0.5v-5c0-0.275,0.224-0.5,0.5-0.5h3c0.276,0,0.5,0.225,0.5,0.5V86.943z M622.5,86.943
						c0,0.277-0.224,0.5-0.5,0.5h-3c-0.276,0-0.5-0.223-0.5-0.5v-5c0-0.275,0.224-0.5,0.5-0.5h3c0.276,0,0.5,0.225,0.5,0.5V86.943z
						 M630.5,86.943c0,0.277-0.224,0.5-0.5,0.5h-3c-0.276,0-0.5-0.223-0.5-0.5v-5c0-0.275,0.224-0.5,0.5-0.5h3
						c0.276,0,0.5,0.225,0.5,0.5V86.943z"/>
				</g>
				<g>
					<rect x="639" y="71" fill="#333333" width="45" height="45"/>
					<path fill="#EEEEEE" d="M679,77.443h-35c-0.553,0-1,0.449-1,1v23c0,0.553,0.447,1,1,1h3v3c0,0.553,0.447,1,1,1h4v3
						c0,0.553,0.447,1,1,1h17c0.553,0,1-0.447,1-1v-3h4c0.553,0,1-0.447,1-1v-3h3c0.553,0,1-0.447,1-1v-23
						C680,77.893,679.553,77.443,679,77.443z M651.5,86.943c0,0.277-0.224,0.5-0.5,0.5h-3c-0.276,0-0.5-0.223-0.5-0.5v-5
						c0-0.275,0.224-0.5,0.5-0.5h3c0.276,0,0.5,0.225,0.5,0.5V86.943z M659.5,86.943c0,0.277-0.224,0.5-0.5,0.5h-3
						c-0.276,0-0.5-0.223-0.5-0.5v-5c0-0.275,0.224-0.5,0.5-0.5h3c0.276,0,0.5,0.225,0.5,0.5V86.943z M667.5,86.943
						c0,0.277-0.224,0.5-0.5,0.5h-3c-0.276,0-0.5-0.223-0.5-0.5v-5c0-0.275,0.224-0.5,0.5-0.5h3c0.276,0,0.5,0.225,0.5,0.5V86.943z
						 M675.5,86.943c0,0.277-0.224,0.5-0.5,0.5h-3c-0.276,0-0.5-0.223-0.5-0.5v-5c0-0.275,0.224-0.5,0.5-0.5h3
						c0.276,0,0.5,0.225,0.5,0.5V86.943z"/>
				</g>
			</g>
		</g>
		<g>
			<rect x="695" y="23" fill="#222222" width="272" height="94"/>
			<g>
				<g>
					<rect x="786" y="24" fill="#333333" width="45" height="45"/>
					<path fill="#EEEEEE" d="M826,30.444h-35c-0.553,0-1,0.448-1,1v23c0,0.552,0.447,1,1,1h3v3c0,0.552,0.447,1,1,1h4v3
						c0,0.552,0.447,1,1,1h17c0.553,0,1-0.448,1-1v-3h4c0.553,0,1-0.448,1-1v-3h3c0.553,0,1-0.448,1-1v-23
						C827,30.892,826.553,30.444,826,30.444z M798.5,39.944c0,0.276-0.224,0.5-0.5,0.5h-3c-0.276,0-0.5-0.224-0.5-0.5v-5
						c0-0.276,0.224-0.5,0.5-0.5h3c0.276,0,0.5,0.224,0.5,0.5V39.944z M806.5,39.944c0,0.276-0.224,0.5-0.5,0.5h-3
						c-0.276,0-0.5-0.224-0.5-0.5v-5c0-0.276,0.224-0.5,0.5-0.5h3c0.276,0,0.5,0.224,0.5,0.5V39.944z M814.5,39.944
						c0,0.276-0.224,0.5-0.5,0.5h-3c-0.276,0-0.5-0.224-0.5-0.5v-5c0-0.276,0.224-0.5,0.5-0.5h3c0.276,0,0.5,0.224,0.5,0.5V39.944z
						 M822.5,39.944c0,0.276-0.224,0.5-0.5,0.5h-3c-0.276,0-0.5-0.224-0.5-0.5v-5c0-0.276,0.224-0.5,0.5-0.5h3
						c0.276,0,0.5,0.224,0.5,0.5V39.944z"/>
				</g>
				<g>
					<rect x="831" y="24" fill="#222222" width="45" height="45"/>
					<path fill="#EEEEEE" d="M871,30.444h-35c-0.553,0-1,0.448-1,1v23c0,0.552,0.447,1,1,1h3v3c0,0.552,0.447,1,1,1h4v3
						c0,0.552,0.447,1,1,1h17c0.553,0,1-0.448,1-1v-3h4c0.553,0,1-0.448,1-1v-3h3c0.553,0,1-0.448,1-1v-23
						C872,30.892,871.553,30.444,871,30.444z M843.5,39.944c0,0.276-0.224,0.5-0.5,0.5h-3c-0.276,0-0.5-0.224-0.5-0.5v-5
						c0-0.276,0.224-0.5,0.5-0.5h3c0.276,0,0.5,0.224,0.5,0.5V39.944z M851.5,39.944c0,0.276-0.224,0.5-0.5,0.5h-3
						c-0.276,0-0.5-0.224-0.5-0.5v-5c0-0.276,0.224-0.5,0.5-0.5h3c0.276,0,0.5,0.224,0.5,0.5V39.944z M859.5,39.944
						c0,0.276-0.224,0.5-0.5,0.5h-3c-0.276,0-0.5-0.224-0.5-0.5v-5c0-0.276,0.224-0.5,0.5-0.5h3c0.276,0,0.5,0.224,0.5,0.5V39.944z
						 M867.5,39.944c0,0.276-0.224,0.5-0.5,0.5h-3c-0.276,0-0.5-0.224-0.5-0.5v-5c0-0.276,0.224-0.5,0.5-0.5h3
						c0.276,0,0.5,0.224,0.5,0.5V39.944z"/>
				</g>
				<g>
					<rect x="876" y="24" fill="#333333" width="45" height="45"/>
					<path fill="#EEEEEE" d="M916,30.444h-35c-0.553,0-1,0.448-1,1v23c0,0.552,0.447,1,1,1h3v3c0,0.552,0.447,1,1,1h4v3
						c0,0.552,0.447,1,1,1h17c0.553,0,1-0.448,1-1v-3h4c0.553,0,1-0.448,1-1v-3h3c0.553,0,1-0.448,1-1v-23
						C917,30.892,916.553,30.444,916,30.444z M888.5,39.944c0,0.276-0.224,0.5-0.5,0.5h-3c-0.276,0-0.5-0.224-0.5-0.5v-5
						c0-0.276,0.224-0.5,0.5-0.5h3c0.276,0,0.5,0.224,0.5,0.5V39.944z M896.5,39.944c0,0.276-0.224,0.5-0.5,0.5h-3
						c-0.276,0-0.5-0.224-0.5-0.5v-5c0-0.276,0.224-0.5,0.5-0.5h3c0.276,0,0.5,0.224,0.5,0.5V39.944z M904.5,39.944
						c0,0.276-0.224,0.5-0.5,0.5h-3c-0.276,0-0.5-0.224-0.5-0.5v-5c0-0.276,0.224-0.5,0.5-0.5h3c0.276,0,0.5,0.224,0.5,0.5V39.944z
						 M912.5,39.944c0,0.276-0.224,0.5-0.5,0.5h-3c-0.276,0-0.5-0.224-0.5-0.5v-5c0-0.276,0.224-0.5,0.5-0.5h3
						c0.276,0,0.5,0.224,0.5,0.5V39.944z"/>
				</g>
				<g>
					<rect x="921" y="24" fill="#222222" width="45" height="45"/>
					<path fill="#EEEEEE" d="M961,30.444h-35c-0.553,0-1,0.448-1,1v23c0,0.552,0.447,1,1,1h3v3c0,0.552,0.447,1,1,1h4v3
						c0,0.552,0.447,1,1,1h17c0.553,0,1-0.448,1-1v-3h4c0.553,0,1-0.448,1-1v-3h3c0.553,0,1-0.448,1-1v-23
						C962,30.892,961.553,30.444,961,30.444z M933.5,39.944c0,0.276-0.224,0.5-0.5,0.5h-3c-0.276,0-0.5-0.224-0.5-0.5v-5
						c0-0.276,0.224-0.5,0.5-0.5h3c0.276,0,0.5,0.224,0.5,0.5V39.944z M941.5,39.944c0,0.276-0.224,0.5-0.5,0.5h-3
						c-0.276,0-0.5-0.224-0.5-0.5v-5c0-0.276,0.224-0.5,0.5-0.5h3c0.276,0,0.5,0.224,0.5,0.5V39.944z M949.5,39.944
						c0,0.276-0.224,0.5-0.5,0.5h-3c-0.276,0-0.5-0.224-0.5-0.5v-5c0-0.276,0.224-0.5,0.5-0.5h3c0.276,0,0.5,0.224,0.5,0.5V39.944z
						 M957.5,39.944c0,0.276-0.224,0.5-0.5,0.5h-3c-0.276,0-0.5-0.224-0.5-0.5v-5c0-0.276,0.224-0.5,0.5-0.5h3
						c0.276,0,0.5,0.224,0.5,0.5V39.944z"/>
				</g>
				<g>
					<rect x="786" y="71" fill="#222222" width="45" height="45"/>
					<path fill="#EEEEEE" d="M826,77.443h-35c-0.553,0-1,0.449-1,1v23c0,0.553,0.447,1,1,1h3v3c0,0.553,0.447,1,1,1h4v3
						c0,0.553,0.447,1,1,1h17c0.553,0,1-0.447,1-1v-3h4c0.553,0,1-0.447,1-1v-3h3c0.553,0,1-0.447,1-1v-23
						C827,77.893,826.553,77.443,826,77.443z M798.5,86.943c0,0.277-0.224,0.5-0.5,0.5h-3c-0.276,0-0.5-0.223-0.5-0.5v-5
						c0-0.275,0.224-0.5,0.5-0.5h3c0.276,0,0.5,0.225,0.5,0.5V86.943z M806.5,86.943c0,0.277-0.224,0.5-0.5,0.5h-3
						c-0.276,0-0.5-0.223-0.5-0.5v-5c0-0.275,0.224-0.5,0.5-0.5h3c0.276,0,0.5,0.225,0.5,0.5V86.943z M814.5,86.943
						c0,0.277-0.224,0.5-0.5,0.5h-3c-0.276,0-0.5-0.223-0.5-0.5v-5c0-0.275,0.224-0.5,0.5-0.5h3c0.276,0,0.5,0.225,0.5,0.5V86.943z
						 M822.5,86.943c0,0.277-0.224,0.5-0.5,0.5h-3c-0.276,0-0.5-0.223-0.5-0.5v-5c0-0.275,0.224-0.5,0.5-0.5h3
						c0.276,0,0.5,0.225,0.5,0.5V86.943z"/>
				</g>
				<g>
					<rect x="831" y="71" fill="#333333" width="45" height="45"/>
					<path fill="#EEEEEE" d="M871,77.443h-35c-0.553,0-1,0.449-1,1v23c0,0.553,0.447,1,1,1h3v3c0,0.553,0.447,1,1,1h4v3
						c0,0.553,0.447,1,1,1h17c0.553,0,1-0.447,1-1v-3h4c0.553,0,1-0.447,1-1v-3h3c0.553,0,1-0.447,1-1v-23
						C872,77.893,871.553,77.443,871,77.443z M843.5,86.943c0,0.277-0.224,0.5-0.5,0.5h-3c-0.276,0-0.5-0.223-0.5-0.5v-5
						c0-0.275,0.224-0.5,0.5-0.5h3c0.276,0,0.5,0.225,0.5,0.5V86.943z M851.5,86.943c0,0.277-0.224,0.5-0.5,0.5h-3
						c-0.276,0-0.5-0.223-0.5-0.5v-5c0-0.275,0.224-0.5,0.5-0.5h3c0.276,0,0.5,0.225,0.5,0.5V86.943z M859.5,86.943
						c0,0.277-0.224,0.5-0.5,0.5h-3c-0.276,0-0.5-0.223-0.5-0.5v-5c0-0.275,0.224-0.5,0.5-0.5h3c0.276,0,0.5,0.225,0.5,0.5V86.943z
						 M867.5,86.943c0,0.277-0.224,0.5-0.5,0.5h-3c-0.276,0-0.5-0.223-0.5-0.5v-5c0-0.275,0.224-0.5,0.5-0.5h3
						c0.276,0,0.5,0.225,0.5,0.5V86.943z"/>
				</g>
				<g>
					<rect x="696" y="24" fill="#333333" width="45" height="45"/>
					<path fill="#EEEEEE" d="M736,30.444h-35c-0.553,0-1,0.448-1,1v23c0,0.552,0.447,1,1,1h3v3c0,0.552,0.447,1,1,1h4v3
						c0,0.552,0.447,1,1,1h17c0.553,0,1-0.448,1-1v-3h4c0.553,0,1-0.448,1-1v-3h3c0.553,0,1-0.448,1-1v-23
						C737,30.892,736.553,30.444,736,30.444z M708.5,39.944c0,0.276-0.224,0.5-0.5,0.5h-3c-0.276,0-0.5-0.224-0.5-0.5v-5
						c0-0.276,0.224-0.5,0.5-0.5h3c0.276,0,0.5,0.224,0.5,0.5V39.944z M716.5,39.944c0,0.276-0.224,0.5-0.5,0.5h-3
						c-0.276,0-0.5-0.224-0.5-0.5v-5c0-0.276,0.224-0.5,0.5-0.5h3c0.276,0,0.5,0.224,0.5,0.5V39.944z M724.5,39.944
						c0,0.276-0.224,0.5-0.5,0.5h-3c-0.276,0-0.5-0.224-0.5-0.5v-5c0-0.276,0.224-0.5,0.5-0.5h3c0.276,0,0.5,0.224,0.5,0.5V39.944z
						 M732.5,39.944c0,0.276-0.224,0.5-0.5,0.5h-3c-0.276,0-0.5-0.224-0.5-0.5v-5c0-0.276,0.224-0.5,0.5-0.5h3
						c0.276,0,0.5,0.224,0.5,0.5V39.944z"/>
				</g>
				<g>
					<rect x="741" y="24" fill="#222222" width="45" height="45"/>
					<path fill="#EEEEEE" d="M781,30.444h-35c-0.553,0-1,0.448-1,1v23c0,0.552,0.447,1,1,1h3v3c0,0.552,0.447,1,1,1h4v3
						c0,0.552,0.447,1,1,1h17c0.553,0,1-0.448,1-1v-3h4c0.553,0,1-0.448,1-1v-3h3c0.553,0,1-0.448,1-1v-23
						C782,30.892,781.553,30.444,781,30.444z M753.5,39.944c0,0.276-0.224,0.5-0.5,0.5h-3c-0.276,0-0.5-0.224-0.5-0.5v-5
						c0-0.276,0.224-0.5,0.5-0.5h3c0.276,0,0.5,0.224,0.5,0.5V39.944z M761.5,39.944c0,0.276-0.224,0.5-0.5,0.5h-3
						c-0.276,0-0.5-0.224-0.5-0.5v-5c0-0.276,0.224-0.5,0.5-0.5h3c0.276,0,0.5,0.224,0.5,0.5V39.944z M769.5,39.944
						c0,0.276-0.224,0.5-0.5,0.5h-3c-0.276,0-0.5-0.224-0.5-0.5v-5c0-0.276,0.224-0.5,0.5-0.5h3c0.276,0,0.5,0.224,0.5,0.5V39.944z
						 M777.5,39.944c0,0.276-0.224,0.5-0.5,0.5h-3c-0.276,0-0.5-0.224-0.5-0.5v-5c0-0.276,0.224-0.5,0.5-0.5h3
						c0.276,0,0.5,0.224,0.5,0.5V39.944z"/>
				</g>
				<g>
					<rect x="696" y="71" fill="#222222" width="45" height="45"/>
					<path fill="#EEEEEE" d="M736,77.443h-35c-0.553,0-1,0.449-1,1v23c0,0.553,0.447,1,1,1h3v3c0,0.553,0.447,1,1,1h4v3
						c0,0.553,0.447,1,1,1h17c0.553,0,1-0.447,1-1v-3h4c0.553,0,1-0.447,1-1v-3h3c0.553,0,1-0.447,1-1v-23
						C737,77.893,736.553,77.443,736,77.443z M708.5,86.943c0,0.277-0.224,0.5-0.5,0.5h-3c-0.276,0-0.5-0.223-0.5-0.5v-5
						c0-0.275,0.224-0.5,0.5-0.5h3c0.276,0,0.5,0.225,0.5,0.5V86.943z M716.5,86.943c0,0.277-0.224,0.5-0.5,0.5h-3
						c-0.276,0-0.5-0.223-0.5-0.5v-5c0-0.275,0.224-0.5,0.5-0.5h3c0.276,0,0.5,0.225,0.5,0.5V86.943z M724.5,86.943
						c0,0.277-0.224,0.5-0.5,0.5h-3c-0.276,0-0.5-0.223-0.5-0.5v-5c0-0.275,0.224-0.5,0.5-0.5h3c0.276,0,0.5,0.225,0.5,0.5V86.943z
						 M732.5,86.943c0,0.277-0.224,0.5-0.5,0.5h-3c-0.276,0-0.5-0.223-0.5-0.5v-5c0-0.275,0.224-0.5,0.5-0.5h3
						c0.276,0,0.5,0.225,0.5,0.5V86.943z"/>
				</g>
				<g>
					<rect x="741" y="71" fill="#333333" width="45" height="45"/>
					<path fill="#EEEEEE" d="M781,77.443h-35c-0.553,0-1,0.449-1,1v23c0,0.553,0.447,1,1,1h3v3c0,0.553,0.447,1,1,1h4v3
						c0,0.553,0.447,1,1,1h17c0.553,0,1-0.447,1-1v-3h4c0.553,0,1-0.447,1-1v-3h3c0.553,0,1-0.447,1-1v-23
						C782,77.893,781.553,77.443,781,77.443z M753.5,86.943c0,0.277-0.224,0.5-0.5,0.5h-3c-0.276,0-0.5-0.223-0.5-0.5v-5
						c0-0.275,0.224-0.5,0.5-0.5h3c0.276,0,0.5,0.225,0.5,0.5V86.943z M761.5,86.943c0,0.277-0.224,0.5-0.5,0.5h-3
						c-0.276,0-0.5-0.223-0.5-0.5v-5c0-0.275,0.224-0.5,0.5-0.5h3c0.276,0,0.5,0.225,0.5,0.5V86.943z M769.5,86.943
						c0,0.277-0.224,0.5-0.5,0.5h-3c-0.276,0-0.5-0.223-0.5-0.5v-5c0-0.275,0.224-0.5,0.5-0.5h3c0.276,0,0.5,0.225,0.5,0.5V86.943z
						 M777.5,86.943c0,0.277-0.224,0.5-0.5,0.5h-3c-0.276,0-0.5-0.223-0.5-0.5v-5c0-0.275,0.224-0.5,0.5-0.5h3
						c0.276,0,0.5,0.225,0.5,0.5V86.943z"/>
				</g>
				<g>
					<rect x="876" y="71" fill="#222222" width="45" height="45"/>
					<path fill="#EEEEEE" d="M916,77.443h-35c-0.553,0-1,0.449-1,1v23c0,0.553,0.447,1,1,1h3v3c0,0.553,0.447,1,1,1h4v3
						c0,0.553,0.447,1,1,1h17c0.553,0,1-0.447,1-1v-3h4c0.553,0,1-0.447,1-1v-3h3c0.553,0,1-0.447,1-1v-23
						C917,77.893,916.553,77.443,916,77.443z M888.5,86.943c0,0.277-0.224,0.5-0.5,0.5h-3c-0.276,0-0.5-0.223-0.5-0.5v-5
						c0-0.275,0.224-0.5,0.5-0.5h3c0.276,0,0.5,0.225,0.5,0.5V86.943z M896.5,86.943c0,0.277-0.224,0.5-0.5,0.5h-3
						c-0.276,0-0.5-0.223-0.5-0.5v-5c0-0.275,0.224-0.5,0.5-0.5h3c0.276,0,0.5,0.225,0.5,0.5V86.943z M904.5,86.943
						c0,0.277-0.224,0.5-0.5,0.5h-3c-0.276,0-0.5-0.223-0.5-0.5v-5c0-0.275,0.224-0.5,0.5-0.5h3c0.276,0,0.5,0.225,0.5,0.5V86.943z
						 M912.5,86.943c0,0.277-0.224,0.5-0.5,0.5h-3c-0.276,0-0.5-0.223-0.5-0.5v-5c0-0.275,0.224-0.5,0.5-0.5h3
						c0.276,0,0.5,0.225,0.5,0.5V86.943z"/>
				</g>
				<g>
					<rect x="921" y="71" fill="#333333" width="45" height="45"/>
					<path fill="#EEEEEE" d="M961,77.443h-35c-0.553,0-1,0.449-1,1v23c0,0.553,0.447,1,1,1h3v3c0,0.553,0.447,1,1,1h4v3
						c0,0.553,0.447,1,1,1h17c0.553,0,1-0.447,1-1v-3h4c0.553,0,1-0.447,1-1v-3h3c0.553,0,1-0.447,1-1v-23
						C962,77.893,961.553,77.443,961,77.443z M933.5,86.943c0,0.277-0.224,0.5-0.5,0.5h-3c-0.276,0-0.5-0.223-0.5-0.5v-5
						c0-0.275,0.224-0.5,0.5-0.5h3c0.276,0,0.5,0.225,0.5,0.5V86.943z M941.5,86.943c0,0.277-0.224,0.5-0.5,0.5h-3
						c-0.276,0-0.5-0.223-0.5-0.5v-5c0-0.275,0.224-0.5,0.5-0.5h3c0.276,0,0.5,0.225,0.5,0.5V86.943z M949.5,86.943
						c0,0.277-0.224,0.5-0.5,0.5h-3c-0.276,0-0.5-0.223-0.5-0.5v-5c0-0.275,0.224-0.5,0.5-0.5h3c0.276,0,0.5,0.225,0.5,0.5V86.943z
						 M957.5,86.943c0,0.277-0.224,0.5-0.5,0.5h-3c-0.276,0-0.5-0.223-0.5-0.5v-5c0-0.275,0.224-0.5,0.5-0.5h3
						c0.276,0,0.5,0.225,0.5,0.5V86.943z"/>
				</g>
			</g>
		</g>
		<g>
			<g>
				<rect x="24" y="71" fill="#222222" width="45" height="45"/>
				<g>
					<path fill="#EEEEEE" d="M64,78H29c-0.552,0-1,0.448-1,1v29c0,0.552,0.448,1,1,1h4v-4.5h27v4.5h4c0.552,0,1-0.448,1-1V79
						C65,78.448,64.552,78,64,78z"/>
				</g>
				<g>
					<rect x="35" y="106.5" fill="#EEEEEE" width="23" height="2.5"/>
				</g>
			</g>
			<g>
				<rect x="69" y="71" fill="#333333" width="45" height="45"/>
				<g>
					<path fill="#EEEEEE" d="M109,78H74c-0.552,0-1,0.448-1,1v29c0,0.552,0.448,1,1,1h4v-4.5h27v4.5h4c0.552,0,1-0.448,1-1V79
						C110,78.448,109.552,78,109,78z"/>
				</g>
				<g>
					<rect x="80" y="106.5" fill="#EEEEEE" width="23" height="2.5"/>
				</g>
			</g>
			<g>
				<rect x="114" y="71" fill="#222222" width="45" height="45"/>
				<g>
					<path fill="#EEEEEE" d="M154,78h-35c-0.552,0-1,0.448-1,1v29c0,0.552,0.448,1,1,1h4v-4.5h27v4.5h4c0.552,0,1-0.448,1-1V79
						C155,78.448,154.552,78,154,78z"/>
				</g>
				<g>
					<rect x="125" y="106.5" fill="#EEEEEE" width="23" height="2.5"/>
				</g>
			</g>
			<g>
				<rect x="159" y="71" fill="#333333" width="45" height="45"/>
				<g>
					<path fill="#EEEEEE" d="M199,78h-35c-0.552,0-1,0.448-1,1v29c0,0.552,0.448,1,1,1h4v-4.5h27v4.5h4c0.552,0,1-0.448,1-1V79
						C200,78.448,199.552,78,199,78z"/>
				</g>
				<g>
					<rect x="170" y="106.5" fill="#EEEEEE" width="23" height="2.5"/>
				</g>
			</g>
			<g>
				<rect x="212" y="71" fill="#222222" width="45" height="45"/>
				<g>
					<path fill="#EEEEEE" d="M252,78h-35c-0.552,0-1,0.448-1,1v29c0,0.552,0.448,1,1,1h4v-4.5h27v4.5h4c0.552,0,1-0.448,1-1V79
						C253,78.448,252.552,78,252,78z"/>
				</g>
				<g>
					<rect x="223" y="106.5" fill="#EEEEEE" width="23" height="2.5"/>
				</g>
			</g>
			<g>
				<rect x="257" y="71" fill="#333333" width="45" height="45"/>
				<g>
					<path fill="#EEEEEE" d="M297,78h-35c-0.552,0-1,0.448-1,1v29c0,0.552,0.448,1,1,1h4v-4.5h27v4.5h4c0.552,0,1-0.448,1-1V79
						C298,78.448,297.552,78,297,78z"/>
				</g>
				<g>
					<rect x="268" y="106.5" fill="#EEEEEE" width="23" height="2.5"/>
				</g>
			</g>
			<g>
				<rect x="302" y="71" fill="#222222" width="45" height="45"/>
				<g>
					<path fill="#EEEEEE" d="M342,78h-35c-0.552,0-1,0.448-1,1v29c0,0.552,0.448,1,1,1h4v-4.5h27v4.5h4c0.552,0,1-0.448,1-1V79
						C343,78.448,342.552,78,342,78z"/>
				</g>
				<g>
					<rect x="313" y="106.5" fill="#EEEEEE" width="23" height="2.5"/>
				</g>
			</g>
			<g>
				<rect x="347" y="71" fill="#333333" width="45" height="45"/>
				<g>
					<path fill="#EEEEEE" d="M387,78h-35c-0.552,0-1,0.448-1,1v29c0,0.552,0.448,1,1,1h4v-4.5h27v4.5h4c0.552,0,1-0.448,1-1V79
						C388,78.448,387.552,78,387,78z"/>
				</g>
				<g>
					<rect x="358" y="106.5" fill="#EEEEEE" width="23" height="2.5"/>
				</g>
			</g>
		</g>
	</g>
</svg>
